<svg xmlns="http://www.w3.org/2000/svg" xmlns:xlink="http://www.w3.org/1999/xlink" contentStyleType="text/css" data-diagram-type="ACTIVITY" height="791px" preserveAspectRatio="none" style="width:370px;height:791px;background:#FFFFFF;" version="1.1" viewBox="0 0 370 791" width="370px" zoomAndPan="magnify"><title>End-to-End Data Flow - Detection to Alert</title><defs/><g><g class="title" data-source-line="1"><text fill="#000000" font-family="sans-serif" font-size="14" font-weight="bold" lengthAdjust="spacing" textLength="327.9268" x="20" y="32.9951">End-to-End Data Flow - Detection to Alert</text></g><ellipse cx="184.7288" cy="57.2969" fill="#222222" rx="10" ry="10" style="stroke:#222222;stroke-width:1;"/><rect fill="#F1F1F1" height="33.9688" rx="12.5" ry="12.5" style="stroke:#181818;stroke-width:0.5;" width="144.9043" x="112.2766" y="87.2969"/><text fill="#000000" font-family="sans-serif" font-size="12" lengthAdjust="spacing" textLength="124.9043" x="122.2766" y="108.4355">PIR Trigger Detected</text><rect fill="#F1F1F1" height="33.9688" rx="12.5" ry="12.5" style="stroke:#181818;stroke-width:0.5;" width="111.7813" x="128.8381" y="141.2656"/><text fill="#000000" font-family="sans-serif" font-size="12" lengthAdjust="spacing" textLength="91.7813" x="138.8381" y="162.4043">Enable Camera</text><rect fill="#F1F1F1" height="33.9688" rx="12.5" ry="12.5" style="stroke:#181818;stroke-width:0.5;" width="110.0527" x="129.7024" y="195.2344"/><text fill="#000000" font-family="sans-serif" font-size="12" lengthAdjust="spacing" textLength="90.0527" x="139.7024" y="216.373">Capture Frame</text><rect fill="#F1F1F1" height="33.9688" rx="12.5" ry="12.5" style="stroke:#181818;stroke-width:0.5;" width="128.0059" x="120.7258" y="249.2031"/><text fill="#000000" font-family="sans-serif" font-size="12" lengthAdjust="spacing" textLength="108.0059" x="130.7258" y="270.3418">Preprocess Frame</text><rect fill="#F1F1F1" height="33.9688" rx="12.5" ry="12.5" style="stroke:#181818;stroke-width:0.5;" width="148.5547" x="110.4514" y="303.1719"/><text fill="#000000" font-family="sans-serif" font-size="12" lengthAdjust="spacing" textLength="128.5547" x="120.4514" y="324.3105">Run Object Detection</text><polygon fill="#F1F1F1" points="136.1687,357.1406,233.2888,357.1406,245.2888,369.1406,233.2888,381.1406,136.1687,381.1406,124.1687,369.1406,136.1687,357.1406" style="stroke:#181818;stroke-width:0.5;"/><text fill="#000000" font-family="sans-serif" font-size="11" lengthAdjust="spacing" textLength="97.1201" x="136.1687" y="372.9487">Person Detected?</text><text fill="#000000" font-family="sans-serif" font-size="11" lengthAdjust="spacing" textLength="14.9585" x="109.2102" y="366.5464">No</text><text fill="#000000" font-family="sans-serif" font-size="11" lengthAdjust="spacing" textLength="19.2178" x="245.2888" y="366.5464">Yes</text><rect fill="#F1F1F1" height="33.9688" rx="12.5" ry="12.5" style="stroke:#181818;stroke-width:0.5;" width="107.4043" x="50.2766" y="391.1406"/><text fill="#000000" font-family="sans-serif" font-size="12" lengthAdjust="spacing" textLength="87.4043" x="60.2766" y="412.2793">Discard Frame</text><ellipse cx="103.9788" cy="456.1094" fill="none" rx="11" ry="11" style="stroke:#222222;stroke-width:1;"/><ellipse cx="103.9788" cy="456.1094" fill="#222222" rx="6" ry="6" style="stroke:#222222;stroke-width:1;"/><rect fill="#F1F1F1" height="33.9688" rx="12.5" ry="12.5" style="stroke:#181818;stroke-width:0.5;" width="99.084" x="215.9368" y="391.1406"/><text fill="#000000" font-family="sans-serif" font-size="12" lengthAdjust="spacing" textLength="79.084" x="225.9368" y="412.2793">Run Tracking</text><rect fill="#F1F1F1" height="33.9688" rx="12.5" ry="12.5" style="stroke:#181818;stroke-width:0.5;" width="175.5957" x="177.6809" y="445.1094"/><text fill="#000000" font-family="sans-serif" font-size="12" lengthAdjust="spacing" textLength="155.5957" x="187.6809" y="466.248">Evaluate Behavioral Logic</text><polygon fill="#F1F1F1" points="137.4631,499.0781,231.9944,499.0781,243.9944,511.0781,231.9944,523.0781,137.4631,523.0781,125.4631,511.0781,137.4631,499.0781" style="stroke:#181818;stroke-width:0.5;"/><text fill="#000000" font-family="sans-serif" font-size="11" lengthAdjust="spacing" textLength="94.5313" x="137.4631" y="514.8862">Threat Qualified?</text><text fill="#000000" font-family="sans-serif" font-size="11" lengthAdjust="spacing" textLength="14.9585" x="110.5046" y="508.4839">No</text><text fill="#000000" font-family="sans-serif" font-size="11" lengthAdjust="spacing" textLength="19.2178" x="243.9944" y="508.4839">Yes</text><rect fill="#F1F1F1" height="33.9688" rx="12.5" ry="12.5" style="stroke:#181818;stroke-width:0.5;" width="144.418" x="25.4109" y="533.0781"/><text fill="#000000" font-family="sans-serif" font-size="12" lengthAdjust="spacing" textLength="124.418" x="35.4109" y="554.2168">Return to Monitoring</text><ellipse cx="97.6199" cy="598.0469" fill="none" rx="11" ry="11" style="stroke:#222222;stroke-width:1;"/><ellipse cx="97.6199" cy="598.0469" fill="#222222" rx="6" ry="6" style="stroke:#222222;stroke-width:1;"/><rect fill="#F1F1F1" height="33.9688" rx="12.5" ry="12.5" style="stroke:#181818;stroke-width:0.5;" width="157.1328" x="193.2712" y="533.0781"/><text fill="#000000" font-family="sans-serif" font-size="12" lengthAdjust="spacing" textLength="137.1328" x="203.2712" y="554.2168">Generate Event Object</text><rect fill="#F1F1F1" height="33.9688" rx="12.5" ry="12.5" style="stroke:#181818;stroke-width:0.5;" width="164.0176" x="189.8289" y="587.0469"/><text fill="#000000" font-family="sans-serif" font-size="12" lengthAdjust="spacing" textLength="144.0176" x="199.8289" y="608.1855">Select Network Channel</text><polygon fill="#F1F1F1" points="116.9993,641.0156,252.4583,641.0156,264.4583,653.0156,252.4583,665.0156,116.9993,665.0156,104.9993,653.0156,116.9993,641.0156" style="stroke:#181818;stroke-width:0.5;"/><text fill="#000000" font-family="sans-serif" font-size="11" lengthAdjust="spacing" textLength="135.459" x="116.9993" y="656.8237">Data Network Available?</text><text fill="#000000" font-family="sans-serif" font-size="11" lengthAdjust="spacing" textLength="19.2178" x="85.7815" y="650.4214">Yes</text><text fill="#000000" font-family="sans-serif" font-size="11" lengthAdjust="spacing" textLength="14.9585" x="264.4583" y="650.4214">No</text><rect fill="#F1F1F1" height="33.9688" rx="12.5" ry="12.5" style="stroke:#181818;stroke-width:0.5;" width="155.8379" x="17.0803" y="675.0156"/><text fill="#000000" font-family="sans-serif" font-size="12" lengthAdjust="spacing" textLength="135.8379" x="27.0803" y="696.1543">Send HTTP/MQTT Alert</text><rect fill="#F1F1F1" height="33.9688" rx="12.5" ry="12.5" style="stroke:#181818;stroke-width:0.5;" width="112.0039" x="218.4563" y="675.0156"/><text fill="#000000" font-family="sans-serif" font-size="12" lengthAdjust="spacing" textLength="92.0039" x="228.4563" y="696.1543">Send SMS Alert</text><polygon fill="#F1F1F1" points="184.7288,714.9844,196.7288,726.9844,184.7288,738.9844,172.7288,726.9844,184.7288,714.9844" style="stroke:#181818;stroke-width:0.5;"/><ellipse cx="184.7288" cy="769.9844" fill="none" rx="11" ry="11" style="stroke:#222222;stroke-width:1;"/><ellipse cx="184.7288" cy="769.9844" fill="#222222" rx="6" ry="6" style="stroke:#222222;stroke-width:1;"/><line style="stroke:#181818;stroke-width:1;" x1="184.7288" x2="184.7288" y1="67.2969" y2="87.2969"/><polygon fill="#181818" points="180.7288,77.2969,184.7288,87.2969,188.7288,77.2969,184.7288,81.2969" style="stroke:#181818;stroke-width:1;"/><line style="stroke:#181818;stroke-width:1;" x1="184.7288" x2="184.7288" y1="121.2656" y2="141.2656"/><polygon fill="#181818" points="180.7288,131.2656,184.7288,141.2656,188.7288,131.2656,184.7288,135.2656" style="stroke:#181818;stroke-width:1;"/><line style="stroke:#181818;stroke-width:1;" x1="184.7288" x2="184.7288" y1="175.2344" y2="195.2344"/><polygon fill="#181818" points="180.7288,185.2344,184.7288,195.2344,188.7288,185.2344,184.7288,189.2344" style="stroke:#181818;stroke-width:1;"/><line style="stroke:#181818;stroke-width:1;" x1="184.7288" x2="184.7288" y1="229.2031" y2="249.2031"/><polygon fill="#181818" points="180.7288,239.2031,184.7288,249.2031,188.7288,239.2031,184.7288,243.2031" style="stroke:#181818;stroke-width:1;"/><line style="stroke:#181818;stroke-width:1;" x1="184.7288" x2="184.7288" y1="283.1719" y2="303.1719"/><polygon fill="#181818" points="180.7288,293.1719,184.7288,303.1719,188.7288,293.1719,184.7288,297.1719" style="stroke:#181818;stroke-width:1;"/><line style="stroke:#181818;stroke-width:1;" x1="103.9788" x2="103.9788" y1="425.1094" y2="445.1094"/><polygon fill="#181818" points="99.9788,435.1094,103.9788,445.1094,107.9788,435.1094,103.9788,439.1094" style="stroke:#181818;stroke-width:1;"/><line style="stroke:#181818;stroke-width:1;" x1="265.4788" x2="265.4788" y1="425.1094" y2="445.1094"/><polygon fill="#181818" points="261.4788,435.1094,265.4788,445.1094,269.4788,435.1094,265.4788,439.1094" style="stroke:#181818;stroke-width:1;"/><line style="stroke:#181818;stroke-width:1;" x1="124.1687" x2="103.9788" y1="369.1406" y2="369.1406"/><line style="stroke:#181818;stroke-width:1;" x1="103.9788" x2="103.9788" y1="369.1406" y2="391.1406"/><polygon fill="#181818" points="99.9788,381.1406,103.9788,391.1406,107.9788,381.1406,103.9788,385.1406" style="stroke:#181818;stroke-width:1;"/><line style="stroke:#181818;stroke-width:1;" x1="245.2888" x2="265.4788" y1="369.1406" y2="369.1406"/><line style="stroke:#181818;stroke-width:1;" x1="265.4788" x2="265.4788" y1="369.1406" y2="391.1406"/><polygon fill="#181818" points="261.4788,381.1406,265.4788,391.1406,269.4788,381.1406,265.4788,385.1406" style="stroke:#181818;stroke-width:1;"/><line style="stroke:#181818;stroke-width:1;" x1="265.4788" x2="265.4788" y1="479.0781" y2="484.0781"/><line style="stroke:#181818;stroke-width:1;" x1="265.4788" x2="184.7288" y1="484.0781" y2="484.0781"/><line style="stroke:#181818;stroke-width:1;" x1="184.7288" x2="184.7288" y1="484.0781" y2="499.0781"/><polygon fill="#181818" points="180.7288,489.0781,184.7288,499.0781,188.7288,489.0781,184.7288,493.0781" style="stroke:#181818;stroke-width:1;"/><line style="stroke:#181818;stroke-width:1;" x1="184.7288" x2="184.7288" y1="337.1406" y2="357.1406"/><polygon fill="#181818" points="180.7288,347.1406,184.7288,357.1406,188.7288,347.1406,184.7288,351.1406" style="stroke:#181818;stroke-width:1;"/><line style="stroke:#181818;stroke-width:1;" x1="97.6199" x2="97.6199" y1="567.0469" y2="587.0469"/><polygon fill="#181818" points="93.6199,577.0469,97.6199,587.0469,101.6199,577.0469,97.6199,581.0469" style="stroke:#181818;stroke-width:1;"/><line style="stroke:#181818;stroke-width:1;" x1="271.8376" x2="271.8376" y1="567.0469" y2="587.0469"/><polygon fill="#181818" points="267.8376,577.0469,271.8376,587.0469,275.8376,577.0469,271.8376,581.0469" style="stroke:#181818;stroke-width:1;"/><line style="stroke:#181818;stroke-width:1;" x1="125.4631" x2="97.6199" y1="511.0781" y2="511.0781"/><line style="stroke:#181818;stroke-width:1;" x1="97.6199" x2="97.6199" y1="511.0781" y2="533.0781"/><polygon fill="#181818" points="93.6199,523.0781,97.6199,533.0781,101.6199,523.0781,97.6199,527.0781" style="stroke:#181818;stroke-width:1;"/><line style="stroke:#181818;stroke-width:1;" x1="243.9944" x2="271.8376" y1="511.0781" y2="511.0781"/><line style="stroke:#181818;stroke-width:1;" x1="271.8376" x2="271.8376" y1="511.0781" y2="533.0781"/><polygon fill="#181818" points="267.8376,523.0781,271.8376,533.0781,275.8376,523.0781,271.8376,527.0781" style="stroke:#181818;stroke-width:1;"/><line style="stroke:#181818;stroke-width:1;" x1="271.8376" x2="271.8376" y1="621.0156" y2="626.0156"/><line style="stroke:#181818;stroke-width:1;" x1="271.8376" x2="184.7288" y1="626.0156" y2="626.0156"/><line style="stroke:#181818;stroke-width:1;" x1="184.7288" x2="184.7288" y1="626.0156" y2="641.0156"/><polygon fill="#181818" points="180.7288,631.0156,184.7288,641.0156,188.7288,631.0156,184.7288,635.0156" style="stroke:#181818;stroke-width:1;"/><line style="stroke:#181818;stroke-width:1;" x1="104.9993" x2="94.9993" y1="653.0156" y2="653.0156"/><line style="stroke:#181818;stroke-width:1;" x1="94.9993" x2="94.9993" y1="653.0156" y2="675.0156"/><polygon fill="#181818" points="90.9993,665.0156,94.9993,675.0156,98.9993,665.0156,94.9993,669.0156" style="stroke:#181818;stroke-width:1;"/><line style="stroke:#181818;stroke-width:1;" x1="264.4583" x2="274.4583" y1="653.0156" y2="653.0156"/><line style="stroke:#181818;stroke-width:1;" x1="274.4583" x2="274.4583" y1="653.0156" y2="675.0156"/><polygon fill="#181818" points="270.4583,665.0156,274.4583,675.0156,278.4583,665.0156,274.4583,669.0156" style="stroke:#181818;stroke-width:1;"/><line style="stroke:#181818;stroke-width:1;" x1="94.9993" x2="94.9993" y1="708.9844" y2="726.9844"/><line style="stroke:#181818;stroke-width:1;" x1="94.9993" x2="172.7288" y1="726.9844" y2="726.9844"/><polygon fill="#181818" points="162.7288,722.9844,172.7288,726.9844,162.7288,730.9844,166.7288,726.9844" style="stroke:#181818;stroke-width:1;"/><line style="stroke:#181818;stroke-width:1;" x1="274.4583" x2="274.4583" y1="708.9844" y2="726.9844"/><line style="stroke:#181818;stroke-width:1;" x1="274.4583" x2="196.7288" y1="726.9844" y2="726.9844"/><polygon fill="#181818" points="206.7288,722.9844,196.7288,726.9844,206.7288,730.9844,202.7288,726.9844" style="stroke:#181818;stroke-width:1;"/><line style="stroke:#181818;stroke-width:1;" x1="184.7288" x2="184.7288" y1="738.9844" y2="758.9844"/><polygon fill="#181818" points="180.7288,748.9844,184.7288,758.9844,188.7288,748.9844,184.7288,752.9844" style="stroke:#181818;stroke-width:1;"/><!--SRC=[RP5FRy8m3CNl_HG-mW7jtXuc1jqVQR12SzdHjARDo1BakENhBw6bQ1AvM7fvyVlP4Is68BVrGjmY55YZ8BmQTu45h4ce4kqiY8Eb8POayOAnfCN77XJhfY4UVLHdGSyj7aB75VuIOvQaApnBnmIl79HeA9ZEx2ho_gxjEmjVXv_Gv9uPT7s4MK7i0y0judaEqfA5sTRD4mWdNMjV8TUtPb7puiu96Kym-oO_-cA6OgnEsZQ3BSrxD1qAmGkrs6l7QE3JDRhA4hArFWu4gcL2WLs7HX_r8uGzXH6lIzeugyNn5F6Gv8ris4s8pNkoCWu-8fLauXQs91V79rYrQ2sPVppN7xePbZrg4pS-KTrpol08tfKgdZOxfOOFp4QQYVrgAZVbT3q4HV0_]--></g></svg>