<svg xmlns="http://www.w3.org/2000/svg" xmlns:xlink="http://www.w3.org/1999/xlink" contentStyleType="text/css" data-diagram-type="DESCRIPTION" height="602px" preserveAspectRatio="none" style="width:387px;height:602px;background:#FFFFFF;" version="1.1" viewBox="0 0 387 602" width="387px" zoomAndPan="magnify"><title>Deployment Diagram - Runtime Environment</title><defs/><g><g class="title" data-source-line="1"><text fill="#000000" font-family="sans-serif" font-size="14" font-weight="bold" lengthAdjust="spacing" textLength="354.5322" x="10" y="22.9951">Deployment Diagram - Runtime Environment</text></g><!--cluster Edge Device\n(Raspberry Pi 5)--><g class="cluster" data-entity="Edge Device.n.Raspberry Pi 5." data-source-line="3" data-uid="ent0002" id="cluster_Edge Device.n.Raspberry Pi 5."><polygon fill="none" points="39.2661,53.2969,49.2661,43.2969,370.2661,43.2969,370.2661,257.2969,360.2661,267.2969,39.2661,267.2969,39.2661,53.2969" style="stroke:#181818;stroke-width:1;"/><line style="stroke:#181818;stroke-width:1;" x1="360.2661" x2="370.2661" y1="53.2969" y2="43.2969"/><line style="stroke:#181818;stroke-width:1;" x1="39.2661" x2="360.2661" y1="53.2969" y2="53.2969"/><line style="stroke:#181818;stroke-width:1;" x1="360.2661" x2="360.2661" y1="53.2969" y2="267.2969"/><text fill="#000000" font-family="sans-serif" font-size="14" font-weight="bold" lengthAdjust="spacing" textLength="96.8105" x="152.3608" y="69.292">Edge Device</text><text fill="#000000" font-family="sans-serif" font-size="14" font-weight="bold" lengthAdjust="spacing" textLength="128.3789" x="136.5767" y="85.5889">(Raspberry Pi 5)</text></g><!--cluster Remote Server--><g class="cluster" data-entity="Remote Server" data-source-line="15" data-uid="ent0008" id="cluster_Remote Server"><polygon fill="none" points="17.2661,387.2969,27.2661,377.2969,245.2661,377.2969,245.2661,575.2969,235.2661,585.2969,17.2661,585.2969,17.2661,387.2969" style="stroke:#181818;stroke-width:1;"/><line style="stroke:#181818;stroke-width:1;" x1="235.2661" x2="245.2661" y1="387.2969" y2="377.2969"/><line style="stroke:#181818;stroke-width:1;" x1="17.2661" x2="235.2661" y1="387.2969" y2="387.2969"/><line style="stroke:#181818;stroke-width:1;" x1="235.2661" x2="235.2661" y1="387.2969" y2="585.2969"/><text fill="#000000" font-family="sans-serif" font-size="14" font-weight="bold" lengthAdjust="spacing" textLength="117.5508" x="68.4907" y="403.292">Remote Server</text></g><!--entity Edge AI Application--><g class="entity" data-entity="Edge AI Application" data-source-line="4" data-uid="ent0003" id="entity_Edge AI Application"><rect fill="#F1F1F1" height="46.2969" rx="2.5" ry="2.5" style="stroke:#181818;stroke-width:0.5;" width="176.0625" x="116.2661" y="99.2969"/><rect fill="#F1F1F1" height="10" style="stroke:#181818;stroke-width:0.5;" width="15" x="272.3286" y="104.2969"/><rect fill="#F1F1F1" height="2" style="stroke:#181818;stroke-width:0.5;" width="4" x="270.3286" y="106.2969"/><rect fill="#F1F1F1" height="2" style="stroke:#181818;stroke-width:0.5;" width="4" x="270.3286" y="110.2969"/><text fill="#000000" font-family="sans-serif" font-size="14" lengthAdjust="spacing" textLength="136.0625" x="131.2661" y="132.292">Edge AI Application</text></g><!--entity LTE Modem--><g class="entity" data-entity="LTE Modem" data-source-line="5" data-uid="ent0004" id="entity_LTE Modem"><rect fill="#F1F1F1" height="46.2969" rx="2.5" ry="2.5" style="stroke:#181818;stroke-width:0.5;" width="121.4297" x="55.7661" y="205.2969"/><rect fill="#F1F1F1" height="10" style="stroke:#181818;stroke-width:0.5;" width="15" x="157.1958" y="210.2969"/><rect fill="#F1F1F1" height="2" style="stroke:#181818;stroke-width:0.5;" width="4" x="155.1958" y="212.2969"/><rect fill="#F1F1F1" height="2" style="stroke:#181818;stroke-width:0.5;" width="4" x="155.1958" y="216.2969"/><text fill="#000000" font-family="sans-serif" font-size="14" lengthAdjust="spacing" textLength="81.4297" x="70.7661" y="238.292">LTE Modem</text></g><!--entity Wi-Fi Interface--><g class="entity" data-entity="Wi-Fi Interface" data-source-line="6" data-uid="ent0005" id="entity_Wi-Fi Interface"><rect fill="#F1F1F1" height="46.2969" rx="2.5" ry="2.5" style="stroke:#181818;stroke-width:0.5;" width="141.8555" x="212.2661" y="205.2969"/><rect fill="#F1F1F1" height="10" style="stroke:#181818;stroke-width:0.5;" width="15" x="334.1216" y="210.2969"/><rect fill="#F1F1F1" height="2" style="stroke:#181818;stroke-width:0.5;" width="4" x="332.1216" y="212.2969"/><rect fill="#F1F1F1" height="2" style="stroke:#181818;stroke-width:0.5;" width="4" x="332.1216" y="216.2969"/><text fill="#000000" font-family="sans-serif" font-size="14" lengthAdjust="spacing" textLength="101.8555" x="227.2661" y="238.292">Wi-Fi Interface</text></g><!--entity Cellular Network--><g class="entity" data-entity="Cellular Network" data-source-line="9" data-uid="ent0006" id="entity_Cellular Network"><polygon fill="#F1F1F1" points="31.2661,321.2969,41.2661,311.2969,187.436,311.2969,187.436,347.5938,177.436,357.5938,31.2661,357.5938,31.2661,321.2969" style="stroke:#181818;stroke-width:0.5;"/><line style="stroke:#181818;stroke-width:0.5;" x1="177.436" x2="187.436" y1="321.2969" y2="311.2969"/><line style="stroke:#181818;stroke-width:0.5;" x1="31.2661" x2="177.436" y1="321.2969" y2="321.2969"/><line style="stroke:#181818;stroke-width:0.5;" x1="177.436" x2="177.436" y1="321.2969" y2="357.5938"/><text fill="#000000" font-family="sans-serif" font-size="14" lengthAdjust="spacing" textLength="116.1699" x="46.2661" y="344.292">Cellular Network</text></g><!--entity Wi-Fi Network--><g class="entity" data-entity="Wi-Fi Network" data-source-line="12" data-uid="ent0007" id="entity_Wi-Fi Network"><polygon fill="#F1F1F1" points="222.2661,321.2969,232.2661,311.2969,359.897,311.2969,359.897,347.5938,349.897,357.5938,222.2661,357.5938,222.2661,321.2969" style="stroke:#181818;stroke-width:0.5;"/><line style="stroke:#181818;stroke-width:0.5;" x1="349.897" x2="359.897" y1="321.2969" y2="311.2969"/><line style="stroke:#181818;stroke-width:0.5;" x1="222.2661" x2="349.897" y1="321.2969" y2="321.2969"/><line style="stroke:#181818;stroke-width:0.5;" x1="349.897" x2="349.897" y1="321.2969" y2="357.5938"/><text fill="#000000" font-family="sans-serif" font-size="14" lengthAdjust="spacing" textLength="97.6309" x="237.2661" y="344.292">Wi-Fi Network</text></g><!--entity Alert API--><g class="entity" data-entity="Alert API" data-source-line="16" data-uid="ent0009" id="entity_Alert API"><rect fill="#F1F1F1" height="46.2969" rx="2.5" ry="2.5" style="stroke:#181818;stroke-width:0.5;" width="99.9238" x="81.2661" y="417.2969"/><rect fill="#F1F1F1" height="10" style="stroke:#181818;stroke-width:0.5;" width="15" x="161.1899" y="422.2969"/><rect fill="#F1F1F1" height="2" style="stroke:#181818;stroke-width:0.5;" width="4" x="159.1899" y="424.2969"/><rect fill="#F1F1F1" height="2" style="stroke:#181818;stroke-width:0.5;" width="4" x="159.1899" y="428.2969"/><text fill="#000000" font-family="sans-serif" font-size="14" lengthAdjust="spacing" textLength="59.9238" x="96.2661" y="450.292">Alert API</text></g><!--entity Monitoring Dashboard--><g class="entity" data-entity="Monitoring Dashboard" data-source-line="17" data-uid="ent0010" id="entity_Monitoring Dashboard"><rect fill="#F1F1F1" height="46.2969" rx="2.5" ry="2.5" style="stroke:#181818;stroke-width:0.5;" width="195.5176" x="33.2661" y="523.2969"/><rect fill="#F1F1F1" height="10" style="stroke:#181818;stroke-width:0.5;" width="15" x="208.7837" y="528.2969"/><rect fill="#F1F1F1" height="2" style="stroke:#181818;stroke-width:0.5;" width="4" x="206.7837" y="530.2969"/><rect fill="#F1F1F1" height="2" style="stroke:#181818;stroke-width:0.5;" width="4" x="206.7837" y="534.2969"/><text fill="#000000" font-family="sans-serif" font-size="14" lengthAdjust="spacing" textLength="155.5176" x="48.2661" y="556.292">Monitoring Dashboard</text></g><!--link Edge AI Application to LTE Modem--><g class="link" data-entity-1="Edge AI Application" data-entity-2="LTE Modem" data-source-line="20" data-uid="lnk11" id="link_Edge AI Application_LTE Modem"><path d="M185.6061,145.3569 C170.6661,162.9969 153.7008,183.0558 138.7808,200.6958" fill="none" id="Edge AI Application-to-LTE Modem" style="stroke:#181818;stroke-width:1;"/><polygon fill="#181818" points="134.9061,205.2769,143.7723,200.9884,138.135,201.4593,137.6641,195.8221,134.9061,205.2769" style="stroke:#181818;stroke-width:1;"/></g><!--link Edge AI Application to Wi-Fi Interface--><g class="link" data-entity-1="Edge AI Application" data-entity-2="Wi-Fi Interface" data-source-line="21" data-uid="lnk12" id="link_Edge AI Application_Wi-Fi Interface"><path d="M221.0161,145.3569 C234.4261,162.9969 249.5067,182.8591 262.9067,200.4991" fill="none" id="Edge AI Application-to-Wi-Fi Interface" style="stroke:#181818;stroke-width:1;"/><polygon fill="#181818" points="266.5361,205.2769,264.2772,195.6906,263.5116,201.2954,257.9068,200.5298,266.5361,205.2769" style="stroke:#181818;stroke-width:1;"/></g><!--link LTE Modem to Cellular Network--><g class="link" data-entity-1="LTE Modem" data-entity-2="Cellular Network" data-source-line="23" data-uid="lnk13" id="link_LTE Modem_Cellular Network"><path d="M114.7861,251.3569 C113.5961,268.9969 112.34,287.6505 111.15,305.2905" fill="none" id="LTE Modem-to-Cellular Network" style="stroke:#181818;stroke-width:1;"/><polygon fill="#181818" points="110.7461,311.2769,115.3428,302.5665,111.0826,306.2882,107.361,302.0281,110.7461,311.2769" style="stroke:#181818;stroke-width:1;"/></g><!--link Wi-Fi Interface to Wi-Fi Network--><g class="link" data-entity-1="Wi-Fi Interface" data-entity-2="Wi-Fi Network" data-source-line="24" data-uid="lnk14" id="link_Wi-Fi Interface_Wi-Fi Network"><path d="M284.9661,251.3569 C286.3161,268.9969 287.7549,287.6546 289.1149,305.2946" fill="none" id="Wi-Fi Interface-to-Wi-Fi Network" style="stroke:#181818;stroke-width:1;"/><polygon fill="#181818" points="289.5761,311.2769,292.8725,301.996,289.1918,306.2917,284.8961,302.611,289.5761,311.2769" style="stroke:#181818;stroke-width:1;"/></g><!--link Cellular Network to Alert API--><g class="link" data-entity-1="Cellular Network" data-entity-2="Alert API" data-source-line="26" data-uid="lnk15" id="link_Cellular Network_Alert API"><path d="M113.9361,357.3569 C117.6661,374.9969 121.6349,393.7667 125.3649,411.4067" fill="none" id="Cellular Network-to-Alert API" style="stroke:#181818;stroke-width:1;"/><polygon fill="#181818" points="126.6061,417.2769,128.6577,407.6441,125.5717,412.385,120.8308,409.2991,126.6061,417.2769" style="stroke:#181818;stroke-width:1;"/></g><!--link Wi-Fi Network to Alert API--><g class="link" data-entity-1="Wi-Fi Network" data-entity-2="Alert API" data-source-line="27" data-uid="lnk16" id="link_Wi-Fi Network_Alert API"><path d="M257.3361,357.3569 C230.1861,374.9969 197.3169,396.3671 170.1769,414.0071" fill="none" id="Wi-Fi Network-to-Alert API" style="stroke:#181818;stroke-width:1;"/><polygon fill="#181818" points="165.1461,417.2769,174.8721,415.726,169.3384,414.552,170.5124,409.0183,165.1461,417.2769" style="stroke:#181818;stroke-width:1;"/></g><!--link Alert API to Monitoring Dashboard--><g class="link" data-entity-1="Alert API" data-entity-2="Monitoring Dashboard" data-source-line="29" data-uid="lnk17" id="link_Alert API_Monitoring Dashboard"><path d="M131.2661,463.3569 C131.2661,480.9969 131.2661,499.6369 131.2661,517.2769" fill="none" id="Alert API-to-Monitoring Dashboard" style="stroke:#181818;stroke-width:1;"/><polygon fill="#181818" points="131.2661,523.2769,135.2661,514.2769,131.2661,518.2769,127.2661,514.2769,131.2661,523.2769" style="stroke:#181818;stroke-width:1;"/></g><!--SRC=[VL1DIyGm4BtdLmmzwQ57hqAn5GgkB5NmuYNRZdKmcGcpsSeY_dUtMrngKynjU1zvxqMA3g74uEJeaIEKP7kr7d9e3Xp98rGya0gFg34i7K9MTVqe6gZ5Lxvgx3xiKFK8MuARwmo-39nUApu8ZvuJlwYX2C5HQoC9PqlEmtC5cvExJv0Noky9QeweRxR5p7p_vhX3vmxEAZnY_1Jz6B- -W9Di3MdGIqHuGXrGL-8M3ZL2iQsJA1jXYgB4FPHs_xuJgzqvpsf5oFFRFyN-OIKbpKmuKPAs9b7DlIuiixBJcJVhkLnhYPlPCO6hK_m0]--></g></svg>