<svg xmlns="http://www.w3.org/2000/svg" xmlns:xlink="http://www.w3.org/1999/xlink" contentStyleType="text/css" data-diagram-type="DESCRIPTION" height="904px" preserveAspectRatio="none" style="width:1128px;height:904px;background:#FFFFFF;" version="1.1" viewBox="0 0 1128 904" width="1128px" zoomAndPan="magnify"><title>Logical Component Architecture - Edge AI Node</title><defs/><g><g class="title" data-source-line="1"><text fill="#000000" font-family="sans-serif" font-size="14" font-weight="bold" lengthAdjust="spacing" textLength="375.5459" x="369.2271" y="22.9951">Logical Component Architecture - Edge AI Node</text></g><!--cluster System Control Layer--><g class="cluster" data-entity="System Control Layer" data-source-line="3" data-uid="ent0002" id="cluster_System Control Layer"><path d="M8.5,43.2969 L179.332,43.2969 A3.75,3.75 0 0 1 181.832,45.7969 L188.832,65.5938 L247.5,65.5938 A2.5,2.5 0 0 1 250,68.0938 L250,243.7969 A2.5,2.5 0 0 1 247.5,246.2969 L8.5,246.2969 A2.5,2.5 0 0 1 6,243.7969 L6,45.7969 A2.5,2.5 0 0 1 8.5,43.2969" fill="none" style="stroke:#000000;stroke-width:1.5;"/><line style="stroke:#000000;stroke-width:1.5;" x1="6" x2="188.832" y1="65.5938" y2="65.5938"/><text fill="#000000" font-family="sans-serif" font-size="14" font-weight="bold" lengthAdjust="spacing" textLength="169.832" x="10" y="58.292">System Control Layer</text></g><!--cluster Perception & Analysis Layer--><g class="cluster" data-entity="Perception . Analysis Layer" data-source-line="8" data-uid="ent0005" id="cluster_Perception . Analysis Layer"><path d="M264.5,270.2969 L487.415,270.2969 A3.75,3.75 0 0 1 489.915,272.7969 L496.915,292.5938 L511.5,292.5938 A2.5,2.5 0 0 1 514,295.0938 L514,788.7969 A2.5,2.5 0 0 1 511.5,791.2969 L264.5,791.2969 A2.5,2.5 0 0 1 262,788.7969 L262,272.7969 A2.5,2.5 0 0 1 264.5,270.2969" fill="none" style="stroke:#000000;stroke-width:1.5;"/><line style="stroke:#000000;stroke-width:1.5;" x1="262" x2="496.915" y1="292.5938" y2="292.5938"/><text fill="#000000" font-family="sans-serif" font-size="14" font-weight="bold" lengthAdjust="spacing" textLength="221.915" x="266" y="285.292">Perception &amp; Analysis Layer</text></g><!--cluster Communication Layer--><g class="cluster" data-entity="Communication Layer" data-source-line="16" data-uid="ent0011" id="cluster_Communication Layer"><path d="M675.5,588.2969 L847.8906,588.2969 A3.75,3.75 0 0 1 850.3906,590.7969 L857.3906,610.5938 L864.5,610.5938 A2.5,2.5 0 0 1 867,613.0938 L867,894.7969 A2.5,2.5 0 0 1 864.5,897.2969 L675.5,897.2969 A2.5,2.5 0 0 1 673,894.7969 L673,590.7969 A2.5,2.5 0 0 1 675.5,588.2969" fill="none" style="stroke:#000000;stroke-width:1.5;"/><line style="stroke:#000000;stroke-width:1.5;" x1="673" x2="857.3906" y1="610.5938" y2="610.5938"/><text fill="#000000" font-family="sans-serif" font-size="14" font-weight="bold" lengthAdjust="spacing" textLength="171.3906" x="677" y="603.292">Communication Layer</text></g><!--cluster Hardware Interface Layer--><g class="cluster" data-entity="Hardware Interface Layer" data-source-line="22" data-uid="ent0015" id="cluster_Hardware Interface Layer"><path d="M276.5,43.2969 L479.6113,43.2969 A3.75,3.75 0 0 1 482.1113,45.7969 L489.1113,65.5938 L1118.5,65.5938 A2.5,2.5 0 0 1 1121,68.0938 L1121,137.7969 A2.5,2.5 0 0 1 1118.5,140.2969 L276.5,140.2969 A2.5,2.5 0 0 1 274,137.7969 L274,45.7969 A2.5,2.5 0 0 1 276.5,43.2969" fill="none" style="stroke:#000000;stroke-width:1.5;"/><line style="stroke:#000000;stroke-width:1.5;" x1="274" x2="489.1113" y1="65.5938" y2="65.5938"/><text fill="#000000" font-family="sans-serif" font-size="14" font-weight="bold" lengthAdjust="spacing" textLength="202.1113" x="278" y="58.292">Hardware Interface Layer</text></g><!--entity Configuration Manager--><g class="entity" data-entity="Configuration Manager" data-source-line="4" data-uid="ent0003" id="entity_Configuration Manager"><rect fill="#F1F1F1" height="46.2969" rx="2.5" ry="2.5" style="stroke:#181818;stroke-width:0.5;" width="200.7607" x="27.5" y="78.2969"/><rect fill="#F1F1F1" height="10" style="stroke:#181818;stroke-width:0.5;" width="15" x="208.2607" y="83.2969"/><rect fill="#F1F1F1" height="2" style="stroke:#181818;stroke-width:0.5;" width="4" x="206.2607" y="85.2969"/><rect fill="#F1F1F1" height="2" style="stroke:#181818;stroke-width:0.5;" width="4" x="206.2607" y="89.2969"/><text fill="#000000" font-family="sans-serif" font-size="14" lengthAdjust="spacing" textLength="160.7607" x="42.5" y="111.292">Configuration Manager</text></g><!--entity State & Power Controller--><g class="entity" data-entity="State . Power Controller" data-source-line="5" data-uid="ent0004" id="entity_State . Power Controller"><rect fill="#F1F1F1" height="46.2969" rx="2.5" ry="2.5" style="stroke:#181818;stroke-width:0.5;" width="213.3252" x="21.5" y="184.2969"/><rect fill="#F1F1F1" height="10" style="stroke:#181818;stroke-width:0.5;" width="15" x="214.8252" y="189.2969"/><rect fill="#F1F1F1" height="2" style="stroke:#181818;stroke-width:0.5;" width="4" x="212.8252" y="191.2969"/><rect fill="#F1F1F1" height="2" style="stroke:#181818;stroke-width:0.5;" width="4" x="212.8252" y="195.2969"/><text fill="#000000" font-family="sans-serif" font-size="14" lengthAdjust="spacing" textLength="173.3252" x="36.5" y="217.292">State &amp; Power Controller</text></g><!--entity Image Acquisition Module--><g class="entity" data-entity="Image Acquisition Module" data-source-line="9" data-uid="ent0006" id="entity_Image Acquisition Module"><rect fill="#F1F1F1" height="46.2969" rx="2.5" ry="2.5" style="stroke:#181818;stroke-width:0.5;" width="220.5781" x="277.5" y="305.2969"/><rect fill="#F1F1F1" height="10" style="stroke:#181818;stroke-width:0.5;" width="15" x="478.0781" y="310.2969"/><rect fill="#F1F1F1" height="2" style="stroke:#181818;stroke-width:0.5;" width="4" x="476.0781" y="312.2969"/><rect fill="#F1F1F1" height="2" style="stroke:#181818;stroke-width:0.5;" width="4" x="476.0781" y="316.2969"/><text fill="#000000" font-family="sans-serif" font-size="14" lengthAdjust="spacing" textLength="180.5781" x="292.5" y="338.292">Image Acquisition Module</text></g><!--entity Preprocessing Module--><g class="entity" data-entity="Preprocessing Module" data-source-line="10" data-uid="ent0007" id="entity_Preprocessing Module"><rect fill="#F1F1F1" height="46.2969" rx="2.5" ry="2.5" style="stroke:#181818;stroke-width:0.5;" width="193.9248" x="291" y="411.2969"/><rect fill="#F1F1F1" height="10" style="stroke:#181818;stroke-width:0.5;" width="15" x="464.9248" y="416.2969"/><rect fill="#F1F1F1" height="2" style="stroke:#181818;stroke-width:0.5;" width="4" x="462.9248" y="418.2969"/><rect fill="#F1F1F1" height="2" style="stroke:#181818;stroke-width:0.5;" width="4" x="462.9248" y="422.2969"/><text fill="#000000" font-family="sans-serif" font-size="14" lengthAdjust="spacing" textLength="153.9248" x="306" y="444.292">Preprocessing Module</text></g><!--entity Object Detection Engine--><g class="entity" data-entity="Object Detection Engine" data-source-line="11" data-uid="ent0008" id="entity_Object Detection Engine"><rect fill="#F1F1F1" height="46.2969" rx="2.5" ry="2.5" style="stroke:#181818;stroke-width:0.5;" width="210.4883" x="283" y="517.2969"/><rect fill="#F1F1F1" height="10" style="stroke:#181818;stroke-width:0.5;" width="15" x="473.4883" y="522.2969"/><rect fill="#F1F1F1" height="2" style="stroke:#181818;stroke-width:0.5;" width="4" x="471.4883" y="524.2969"/><rect fill="#F1F1F1" height="2" style="stroke:#181818;stroke-width:0.5;" width="4" x="471.4883" y="528.2969"/><text fill="#000000" font-family="sans-serif" font-size="14" lengthAdjust="spacing" textLength="170.4883" x="298" y="550.292">Object Detection Engine</text></g><!--entity Multi-Object Tracking--><g class="entity" data-entity="Multi-Object Tracking" data-source-line="12" data-uid="ent0009" id="entity_Multi-Object Tracking"><rect fill="#F1F1F1" height="46.2969" rx="2.5" ry="2.5" style="stroke:#181818;stroke-width:0.5;" width="189.6592" x="294" y="623.2969"/><rect fill="#F1F1F1" height="10" style="stroke:#181818;stroke-width:0.5;" width="15" x="463.6592" y="628.2969"/><rect fill="#F1F1F1" height="2" style="stroke:#181818;stroke-width:0.5;" width="4" x="461.6592" y="630.2969"/><rect fill="#F1F1F1" height="2" style="stroke:#181818;stroke-width:0.5;" width="4" x="461.6592" y="634.2969"/><text fill="#000000" font-family="sans-serif" font-size="14" lengthAdjust="spacing" textLength="149.6592" x="309" y="656.292">Multi-Object Tracking</text></g><!--entity Behavioral Logic Module--><g class="entity" data-entity="Behavioral Logic Module" data-source-line="13" data-uid="ent0010" id="entity_Behavioral Logic Module"><rect fill="#F1F1F1" height="46.2969" rx="2.5" ry="2.5" style="stroke:#181818;stroke-width:0.5;" width="211.2813" x="285.5" y="729.2969"/><rect fill="#F1F1F1" height="10" style="stroke:#181818;stroke-width:0.5;" width="15" x="476.7813" y="734.2969"/><rect fill="#F1F1F1" height="2" style="stroke:#181818;stroke-width:0.5;" width="4" x="474.7813" y="736.2969"/><rect fill="#F1F1F1" height="2" style="stroke:#181818;stroke-width:0.5;" width="4" x="474.7813" y="740.2969"/><text fill="#000000" font-family="sans-serif" font-size="14" lengthAdjust="spacing" textLength="171.2813" x="300.5" y="762.292">Behavioral Logic Module</text></g><!--entity Network Monitor--><g class="entity" data-entity="Network Monitor" data-source-line="17" data-uid="ent0012" id="entity_Network Monitor"><rect fill="#F1F1F1" height="46.2969" rx="2.5" ry="2.5" style="stroke:#181818;stroke-width:0.5;" width="156.1221" x="693" y="623.2969"/><rect fill="#F1F1F1" height="10" style="stroke:#181818;stroke-width:0.5;" width="15" x="829.1221" y="628.2969"/><rect fill="#F1F1F1" height="2" style="stroke:#181818;stroke-width:0.5;" width="4" x="827.1221" y="630.2969"/><rect fill="#F1F1F1" height="2" style="stroke:#181818;stroke-width:0.5;" width="4" x="827.1221" y="634.2969"/><text fill="#000000" font-family="sans-serif" font-size="14" lengthAdjust="spacing" textLength="116.1221" x="708" y="656.292">Network Monitor</text></g><!--entity Alert Dispatcher--><g class="entity" data-entity="Alert Dispatcher" data-source-line="18" data-uid="ent0013" id="entity_Alert Dispatcher"><rect fill="#F1F1F1" height="46.2969" rx="2.5" ry="2.5" style="stroke:#181818;stroke-width:0.5;" width="153.6338" x="691" y="835.2969"/><rect fill="#F1F1F1" height="10" style="stroke:#181818;stroke-width:0.5;" width="15" x="824.6338" y="840.2969"/><rect fill="#F1F1F1" height="2" style="stroke:#181818;stroke-width:0.5;" width="4" x="822.6338" y="842.2969"/><rect fill="#F1F1F1" height="2" style="stroke:#181818;stroke-width:0.5;" width="4" x="822.6338" y="846.2969"/><text fill="#000000" font-family="sans-serif" font-size="14" lengthAdjust="spacing" textLength="113.6338" x="706" y="868.292">Alert Dispatcher</text></g><!--entity Failover Manager--><g class="entity" data-entity="Failover Manager" data-source-line="19" data-uid="ent0014" id="entity_Failover Manager"><rect fill="#F1F1F1" height="46.2969" rx="2.5" ry="2.5" style="stroke:#181818;stroke-width:0.5;" width="161.4473" x="689.5" y="729.2969"/><rect fill="#F1F1F1" height="10" style="stroke:#181818;stroke-width:0.5;" width="15" x="830.9473" y="734.2969"/><rect fill="#F1F1F1" height="2" style="stroke:#181818;stroke-width:0.5;" width="4" x="828.9473" y="736.2969"/><rect fill="#F1F1F1" height="2" style="stroke:#181818;stroke-width:0.5;" width="4" x="828.9473" y="740.2969"/><text fill="#000000" font-family="sans-serif" font-size="14" lengthAdjust="spacing" textLength="121.4473" x="704.5" y="762.292">Failover Manager</text></g><!--entity GPIO Interface--><g class="entity" data-entity="GPIO Interface" data-source-line="23" data-uid="ent0016" id="entity_GPIO Interface"><rect fill="#F1F1F1" height="46.2969" rx="2.5" ry="2.5" style="stroke:#181818;stroke-width:0.5;" width="141.5684" x="290" y="78.2969"/><rect fill="#F1F1F1" height="10" style="stroke:#181818;stroke-width:0.5;" width="15" x="411.5684" y="83.2969"/><rect fill="#F1F1F1" height="2" style="stroke:#181818;stroke-width:0.5;" width="4" x="409.5684" y="85.2969"/><rect fill="#F1F1F1" height="2" style="stroke:#181818;stroke-width:0.5;" width="4" x="409.5684" y="89.2969"/><text fill="#000000" font-family="sans-serif" font-size="14" lengthAdjust="spacing" textLength="101.5684" x="305" y="111.292">GPIO Interface</text></g><!--entity Camera Interface--><g class="entity" data-entity="Camera Interface" data-source-line="24" data-uid="ent0017" id="entity_Camera Interface"><rect fill="#F1F1F1" height="46.2969" rx="2.5" ry="2.5" style="stroke:#181818;stroke-width:0.5;" width="162.0693" x="467" y="78.2969"/><rect fill="#F1F1F1" height="10" style="stroke:#181818;stroke-width:0.5;" width="15" x="609.0693" y="83.2969"/><rect fill="#F1F1F1" height="2" style="stroke:#181818;stroke-width:0.5;" width="4" x="607.0693" y="85.2969"/><rect fill="#F1F1F1" height="2" style="stroke:#181818;stroke-width:0.5;" width="4" x="607.0693" y="89.2969"/><text fill="#000000" font-family="sans-serif" font-size="14" lengthAdjust="spacing" textLength="122.0693" x="482" y="111.292">Camera Interface</text></g><!--entity USB Modem Interface--><g class="entity" data-entity="USB Modem Interface" data-source-line="25" data-uid="ent0018" id="entity_USB Modem Interface"><rect fill="#F1F1F1" height="46.2969" rx="2.5" ry="2.5" style="stroke:#181818;stroke-width:0.5;" width="192.0996" x="913" y="78.2969"/><rect fill="#F1F1F1" height="10" style="stroke:#181818;stroke-width:0.5;" width="15" x="1085.0996" y="83.2969"/><rect fill="#F1F1F1" height="2" style="stroke:#181818;stroke-width:0.5;" width="4" x="1083.0996" y="85.2969"/><rect fill="#F1F1F1" height="2" style="stroke:#181818;stroke-width:0.5;" width="4" x="1083.0996" y="89.2969"/><text fill="#000000" font-family="sans-serif" font-size="14" lengthAdjust="spacing" textLength="152.0996" x="928" y="111.292">USB Modem Interface</text></g><!--entity Network Interface Driver--><g class="entity" data-entity="Network Interface Driver" data-source-line="26" data-uid="ent0019" id="entity_Network Interface Driver"><rect fill="#F1F1F1" height="46.2969" rx="2.5" ry="2.5" style="stroke:#181818;stroke-width:0.5;" width="213.1133" x="664.5" y="78.2969"/><rect fill="#F1F1F1" height="10" style="stroke:#181818;stroke-width:0.5;" width="15" x="857.6133" y="83.2969"/><rect fill="#F1F1F1" height="2" style="stroke:#181818;stroke-width:0.5;" width="4" x="855.6133" y="85.2969"/><rect fill="#F1F1F1" height="2" style="stroke:#181818;stroke-width:0.5;" width="4" x="855.6133" y="89.2969"/><text fill="#000000" font-family="sans-serif" font-size="14" lengthAdjust="spacing" textLength="173.1133" x="679.5" y="111.292">Network Interface Driver</text></g><!--link GPIO Interface to State & Power Controller--><g class="link" data-entity-1="GPIO Interface" data-entity-2="State . Power Controller" data-source-line="30" data-uid="lnk20" id="link_GPIO Interface_State . Power Controller"><path d="M311.59,124.3569 C272.05,141.9969 222.339,164.1913 182.819,181.8313" fill="none" id="GPIO Interface-to-State &amp; Power Controller" style="stroke:#181818;stroke-width:1;"/><polygon fill="#181818" points="177.34,184.2769,187.1888,184.2612,181.9058,182.2389,183.9281,176.9559,177.34,184.2769" style="stroke:#181818;stroke-width:1;"/></g><!--link Camera Interface to Image Acquisition Module--><g class="link" data-entity-1="Camera Interface" data-entity-2="Image Acquisition Module" data-source-line="31" data-uid="lnk21" id="link_Camera Interface_Image Acquisition Module"><path d="M532.07,124.6969 C501.4,167.8169 437.9576,257.0475 407.3376,300.0975" fill="none" id="Camera Interface-to-Image Acquisition Module" style="stroke:#181818;stroke-width:1;"/><polygon fill="#181818" points="403.86,304.9869,412.3361,299.9712,406.758,300.9124,405.8169,295.3344,403.86,304.9869" style="stroke:#181818;stroke-width:1;"/></g><!--link USB Modem Interface to Network Monitor--><g class="link" data-entity-1="USB Modem Interface" data-entity-2="Network Monitor" data-source-line="32" data-uid="lnk22" id="link_USB Modem Interface_Network Monitor"><path d="M994.56,124.5869 C970.54,163.8569 925,248.6969 925,327.2969 C925,327.2969 925,327.2969 925,435.2969 C925,517.3569 852.3521,584.9668 807.3021,619.4968" fill="none" id="USB Modem Interface-to-Network Monitor" style="stroke:#181818;stroke-width:1;"/><polygon fill="#181818" points="802.54,623.1469,812.1165,620.8465,806.5084,620.1052,807.2497,614.4971,802.54,623.1469" style="stroke:#181818;stroke-width:1;"/></g><!--link Network Interface Driver to Network Monitor--><g class="link" data-entity-1="Network Interface Driver" data-entity-2="Network Monitor" data-source-line="33" data-uid="lnk23" id="link_Network Interface Driver_Network Monitor"><path d="M771,124.3369 C771,164.6269 771,252.8869 771,327.2969 C771,327.2969 771,327.2969 771,435.2969 C771,503.8369 771,578.9669 771,617.2269" fill="none" id="Network Interface Driver-to-Network Monitor" style="stroke:#181818;stroke-width:1;"/><polygon fill="#181818" points="771,623.2269,775,614.2269,771,618.2269,767,614.2269,771,623.2269" style="stroke:#181818;stroke-width:1;"/></g><!--link Configuration Manager to State & Power Controller--><g class="link" data-entity-1="Configuration Manager" data-entity-2="State . Power Controller" data-source-line="36" data-uid="lnk24" id="link_Configuration Manager_State . Power Controller"><path d="M128,124.3569 C128,141.9969 128,160.6369 128,178.2769" fill="none" id="Configuration Manager-to-State &amp; Power Controller" style="stroke:#181818;stroke-width:1;"/><polygon fill="#181818" points="128,184.2769,132,175.2769,128,179.2769,124,175.2769,128,184.2769" style="stroke:#181818;stroke-width:1;"/></g><!--link State & Power Controller to Image Acquisition Module--><g class="link" data-entity-1="State . Power Controller" data-entity-2="Image Acquisition Module" data-source-line="37" data-uid="lnk25" id="link_State . Power Controller_Image Acquisition Module"><path d="M176.29,230.3969 C222.85,251.7069 287.4542,281.2801 334.0642,302.6101" fill="none" id="State &amp; Power Controller-to-Image Acquisition Module" style="stroke:#181818;stroke-width:1;"/><polygon fill="#181818" points="339.52,305.1069,333.0007,297.7245,334.9735,303.0263,329.6717,304.999,339.52,305.1069" style="stroke:#181818;stroke-width:1;"/></g><!--link State & Power Controller to Object Detection Engine--><g class="link" data-entity-1="State . Power Controller" data-entity-2="Object Detection Engine" data-source-line="38" data-uid="lnk26" id="link_State . Power Controller_Object Detection Engine"><path d="M137.25,230.5969 C157.16,276.7569 207.69,384.4969 274,457.2969 C295.75,481.1769 320.4461,499.1203 344.1061,513.9503" fill="none" id="State &amp; Power Controller-to-Object Detection Engine" style="stroke:#181818;stroke-width:1;"/><polygon fill="#181818" points="349.19,517.1369,343.6885,508.9678,344.9534,514.4814,339.4398,515.7463,349.19,517.1369" style="stroke:#181818;stroke-width:1;"/></g><!--link Image Acquisition Module to Preprocessing Module--><g class="link" data-entity-1="Image Acquisition Module" data-entity-2="Preprocessing Module" data-source-line="41" data-uid="lnk27" id="link_Image Acquisition Module_Preprocessing Module"><path d="M388,351.3569 C388,368.9969 388,387.6369 388,405.2769" fill="none" id="Image Acquisition Module-to-Preprocessing Module" style="stroke:#181818;stroke-width:1;"/><polygon fill="#181818" points="388,411.2769,392,402.2769,388,406.2769,384,402.2769,388,411.2769" style="stroke:#181818;stroke-width:1;"/></g><!--link Preprocessing Module to Object Detection Engine--><g class="link" data-entity-1="Preprocessing Module" data-entity-2="Object Detection Engine" data-source-line="42" data-uid="lnk28" id="link_Preprocessing Module_Object Detection Engine"><path d="M388,457.3569 C388,474.9969 388,493.6369 388,511.2769" fill="none" id="Preprocessing Module-to-Object Detection Engine" style="stroke:#181818;stroke-width:1;"/><polygon fill="#181818" points="388,517.2769,392,508.2769,388,512.2769,384,508.2769,388,517.2769" style="stroke:#181818;stroke-width:1;"/></g><!--link Object Detection Engine to Multi-Object Tracking--><g class="link" data-entity-1="Object Detection Engine" data-entity-2="Multi-Object Tracking" data-source-line="43" data-uid="lnk29" id="link_Object Detection Engine_Multi-Object Tracking"><path d="M388.21,563.3569 C388.38,580.9969 388.5622,599.6372 388.7322,617.2772" fill="none" id="Object Detection Engine-to-Multi-Object Tracking" style="stroke:#181818;stroke-width:1;"/><polygon fill="#181818" points="388.79,623.2769,392.7031,614.2387,388.7418,618.2771,384.7035,614.3158,388.79,623.2769" style="stroke:#181818;stroke-width:1;"/></g><!--link Multi-Object Tracking to Behavioral Logic Module--><g class="link" data-entity-1="Multi-Object Tracking" data-entity-2="Behavioral Logic Module" data-source-line="44" data-uid="lnk30" id="link_Multi-Object Tracking_Behavioral Logic Module"><path d="M389.42,669.3569 C389.76,686.9969 390.1244,705.638 390.4644,723.278" fill="none" id="Multi-Object Tracking-to-Behavioral Logic Module" style="stroke:#181818;stroke-width:1;"/><polygon fill="#181818" points="390.58,729.2769,394.4058,720.2015,390.4836,724.2778,386.4073,720.3556,390.58,729.2769" style="stroke:#181818;stroke-width:1;"/></g><!--link Behavioral Logic Module to Alert Dispatcher--><g class="link" data-entity-1="Behavioral Logic Module" data-entity-2="Alert Dispatcher" data-source-line="47" data-uid="lnk31" id="link_Behavioral Logic Module_Alert Dispatcher"><path d="M470.95,775.3569 C535.79,793.2369 620.8461,816.7009 684.9561,834.3909" fill="none" id="Behavioral Logic Module-to-Alert Dispatcher" style="stroke:#181818;stroke-width:1;"/><polygon fill="#181818" points="690.74,835.9869,683.1282,829.737,685.9201,834.6569,681.0003,837.4489,690.74,835.9869" style="stroke:#181818;stroke-width:1;"/></g><!--link Network Monitor to Failover Manager--><g class="link" data-entity-1="Network Monitor" data-entity-2="Failover Manager" data-source-line="50" data-uid="lnk32" id="link_Network Monitor_Failover Manager"><path d="M770.79,669.3569 C770.62,686.9969 770.4378,705.6372 770.2678,723.2772" fill="none" id="Network Monitor-to-Failover Manager" style="stroke:#181818;stroke-width:1;"/><polygon fill="#181818" points="770.21,729.2769,774.2965,720.3158,770.2582,724.2771,766.2969,720.2387,770.21,729.2769" style="stroke:#181818;stroke-width:1;"/></g><!--link Failover Manager to Alert Dispatcher--><g class="link" data-entity-1="Failover Manager" data-entity-2="Alert Dispatcher" data-source-line="51" data-uid="lnk33" id="link_Failover Manager_Alert Dispatcher"><path d="M769.58,775.3569 C769.24,792.9969 768.8756,811.638 768.5356,829.278" fill="none" id="Failover Manager-to-Alert Dispatcher" style="stroke:#181818;stroke-width:1;"/><polygon fill="#181818" points="768.42,835.2769,772.5927,826.3556,768.5164,830.2778,764.5942,826.2015,768.42,835.2769" style="stroke:#181818;stroke-width:1;"/></g><!--SRC=[XLJBRjj03BphAuWSqfD_eO2IkAs1F0ouFHKzC2j6PhFQLLUK3QFelvVIIevYUMCToHroPaXAM2p1lI_Pe8LRNzNUaHF8Wzcoa94s42nWMPG4-GeUVK5PLgDvHGrSRGwDKAKm9y5RkCS3XIlucu5-FpNwmcKRKDWxU42daF0hvZQ2Gd0DQx-dCE9jb_utAR-cOAZkuTUGExI7XfkJBgkgUvgRFoqt73lvehKqD5e7geCtr3JiolUff-VVgW_kg9FP0PUkP3Tc7rehl1ZUV0zAIGiCkHlQuevzKCTwvuvrf-JLowfrQcjV-ptfHvAz3w-ASon-D2LN0vGFDpMAsHwz-e9i_KvjEbeuRVCDGx577TBA2OKND7JIw-jwzVIM76hUOaK1P-4VcvjEYuxqD3CoVkjo5tWtaFa4HnRFx0ergibE-y9YyVcZkSyfHKHwlcVPHj3CtpJ_140rZLlD7GJx5L5PvxVwehfawgBA2yZa5gk2oVtKN9FLU9Pk5UkTFvZpuGiCafc8IrnO8XunoSjJjSjTz-FohTIjPCcNiSxyrFg1Jo_MTgXijXaHFx_9UIZHwJy0]--></g></svg>