<svg xmlns="http://www.w3.org/2000/svg" xmlns:xlink="http://www.w3.org/1999/xlink" contentStyleType="text/css" data-diagram-type="DESCRIPTION" height="973px" preserveAspectRatio="none" style="width:1115px;height:973px;background:#FFFFFF;" version="1.1" viewBox="0 0 1115 973" width="1115px" zoomAndPan="magnify"><title>Physical Architecture - Solar-Assisted Edge AI Surveillance Node</title><defs/><g><g class="title" data-source-line="1"><text fill="#000000" font-family="sans-serif" font-size="14" font-weight="bold" lengthAdjust="spacing" textLength="509.9883" x="295.5059" y="22.9951">Physical Architecture - Solar-Assisted Edge AI Surveillance Node</text></g><!--cluster Power Subsystem--><g class="cluster" data-entity="Power Subsystem" data-source-line="3" data-uid="ent0002" id="cluster_Power Subsystem"><path d="M8.5,43.2969 L150.2246,43.2969 A3.75,3.75 0 0 1 152.7246,45.7969 L159.7246,65.5938 L307.5,65.5938 A2.5,2.5 0 0 1 310,68.0938 L310,488.2969 A2.5,2.5 0 0 1 307.5,490.7969 L8.5,490.7969 A2.5,2.5 0 0 1 6,488.2969 L6,45.7969 A2.5,2.5 0 0 1 8.5,43.2969" fill="none" style="stroke:#000000;stroke-width:1.5;"/><line style="stroke:#000000;stroke-width:1.5;" x1="6" x2="159.7246" y1="65.5938" y2="65.5938"/><text fill="#000000" font-family="sans-serif" font-size="14" font-weight="bold" lengthAdjust="spacing" textLength="140.7246" x="10" y="58.292">Power Subsystem</text></g><!--cluster Edge Compute Subsystem--><g class="cluster" data-entity="Edge Compute Subsystem" data-source-line="9" data-uid="ent0010" id="cluster_Edge Compute Subsystem"><path d="M336.5,385.2969 L543.6445,385.2969 A3.75,3.75 0 0 1 546.1445,387.7969 L553.1445,407.5938 L1105.5,407.5938 A2.5,2.5 0 0 1 1108,410.0938 L1108,619.7969 A2.5,2.5 0 0 1 1105.5,622.2969 L336.5,622.2969 A2.5,2.5 0 0 1 334,619.7969 L334,387.7969 A2.5,2.5 0 0 1 336.5,385.2969" fill="none" style="stroke:#000000;stroke-width:1.5;"/><line style="stroke:#000000;stroke-width:1.5;" x1="334" x2="553.1445" y1="407.5938" y2="407.5938"/><text fill="#000000" font-family="sans-serif" font-size="14" font-weight="bold" lengthAdjust="spacing" textLength="206.1445" x="338" y="400.292">Edge Compute Subsystem</text></g><!--cluster External Infrastructure--><g class="cluster" data-entity="External Infrastructure" data-source-line="19" data-uid="ent0020" id="cluster_External Infrastructure"><path d="M432.5,655.2969 L615.1445,655.2969 A3.75,3.75 0 0 1 617.6445,657.7969 L624.6445,677.5938 L788.5,677.5938 A2.5,2.5 0 0 1 791,680.0938 L791,963.7969 A2.5,2.5 0 0 1 788.5,966.2969 L432.5,966.2969 A2.5,2.5 0 0 1 430,963.7969 L430,657.7969 A2.5,2.5 0 0 1 432.5,655.2969" fill="none" style="stroke:#000000;stroke-width:1.5;"/><line style="stroke:#000000;stroke-width:1.5;" x1="430" x2="624.6445" y1="677.5938" y2="677.5938"/><text fill="#000000" font-family="sans-serif" font-size="14" font-weight="bold" lengthAdjust="spacing" textLength="181.6445" x="434" y="670.292">External Infrastructure</text></g><!--entity Solar Panel (40W)--><g class="entity" data-entity="Solar Panel .40W." data-source-line="4" data-uid="ent0003" id="entity_Solar Panel .40W."><rect fill="#F1F1F1" height="46.2969" rx="2.5" ry="2.5" style="stroke:#181818;stroke-width:0.5;" width="165.5557" x="75" y="78.2969"/><rect fill="#F1F1F1" height="10" style="stroke:#181818;stroke-width:0.5;" width="15" x="220.5557" y="83.2969"/><rect fill="#F1F1F1" height="2" style="stroke:#181818;stroke-width:0.5;" width="4" x="218.5557" y="85.2969"/><rect fill="#F1F1F1" height="2" style="stroke:#181818;stroke-width:0.5;" width="4" x="218.5557" y="89.2969"/><text fill="#000000" font-family="sans-serif" font-size="14" lengthAdjust="spacing" textLength="125.5557" x="90" y="111.292">Solar Panel (40W)</text></g><!--entity MPPT Charge Controller--><g class="entity" data-entity="MPPT Charge Controller" data-source-line="4" data-uid="ent0004" id="entity_MPPT Charge Controller"><rect fill="#F1F1F1" height="46.2969" rx="2.5" ry="2.5" style="stroke:#181818;stroke-width:0.5;" width="206.0723" x="55" y="185.2969"/><rect fill="#F1F1F1" height="10" style="stroke:#181818;stroke-width:0.5;" width="15" x="241.0723" y="190.2969"/><rect fill="#F1F1F1" height="2" style="stroke:#181818;stroke-width:0.5;" width="4" x="239.0723" y="192.2969"/><rect fill="#F1F1F1" height="2" style="stroke:#181818;stroke-width:0.5;" width="4" x="239.0723" y="196.2969"/><text fill="#000000" font-family="sans-serif" font-size="14" lengthAdjust="spacing" textLength="166.0723" x="70" y="218.292">MPPT Charge Controller</text></g><!--entity 12V Battery (20Ah)--><g class="entity" data-entity="12V Battery .20Ah." data-source-line="5" data-uid="ent0006" id="entity_12V Battery .20Ah."><rect fill="#F1F1F1" height="46.2969" rx="2.5" ry="2.5" style="stroke:#181818;stroke-width:0.5;" width="175.2969" x="70.5" y="292.2969"/><rect fill="#F1F1F1" height="10" style="stroke:#181818;stroke-width:0.5;" width="15" x="225.7969" y="297.2969"/><rect fill="#F1F1F1" height="2" style="stroke:#181818;stroke-width:0.5;" width="4" x="223.7969" y="299.2969"/><rect fill="#F1F1F1" height="2" style="stroke:#181818;stroke-width:0.5;" width="4" x="223.7969" y="303.2969"/><text fill="#000000" font-family="sans-serif" font-size="14" lengthAdjust="spacing" textLength="135.2969" x="85.5" y="325.292">12V Battery (20Ah)</text></g><!--entity DC-DC Buck Converter (12V?5V)--><g class="entity" data-entity="DC-DC Buck Converter .12V.5V." data-source-line="6" data-uid="ent0008" id="entity_DC-DC Buck Converter .12V.5V."><rect fill="#F1F1F1" height="46.2969" rx="2.5" ry="2.5" style="stroke:#181818;stroke-width:0.5;" width="272.0527" x="22" y="428.7969"/><rect fill="#F1F1F1" height="10" style="stroke:#181818;stroke-width:0.5;" width="15" x="274.0527" y="433.7969"/><rect fill="#F1F1F1" height="2" style="stroke:#181818;stroke-width:0.5;" width="4" x="272.0527" y="435.7969"/><rect fill="#F1F1F1" height="2" style="stroke:#181818;stroke-width:0.5;" width="4" x="272.0527" y="439.7969"/><text fill="#000000" font-family="sans-serif" font-size="14" lengthAdjust="spacing" textLength="232.0527" x="37" y="461.792">DC-DC Buck Converter (12V&#8594;5V)</text></g><!--entity Raspberry Pi 5--><g class="entity" data-entity="Raspberry Pi 5" data-source-line="11" data-uid="ent0011" id="entity_Raspberry Pi 5"><rect fill="#F1F1F1" height="46.2969" rx="2.5" ry="2.5" style="stroke:#181818;stroke-width:0.5;" width="141.9238" x="561" y="560.2969"/><rect fill="#F1F1F1" height="10" style="stroke:#181818;stroke-width:0.5;" width="15" x="682.9238" y="565.2969"/><rect fill="#F1F1F1" height="2" style="stroke:#181818;stroke-width:0.5;" width="4" x="680.9238" y="567.2969"/><rect fill="#F1F1F1" height="2" style="stroke:#181818;stroke-width:0.5;" width="4" x="680.9238" y="571.2969"/><text fill="#000000" font-family="sans-serif" font-size="14" lengthAdjust="spacing" textLength="101.9238" x="576" y="593.292">Raspberry Pi 5</text></g><!--entity PIR Sensor--><g class="entity" data-entity="PIR Sensor" data-source-line="13" data-uid="ent0012" id="entity_PIR Sensor"><rect fill="#F1F1F1" height="46.2969" rx="2.5" ry="2.5" style="stroke:#181818;stroke-width:0.5;" width="114.7373" x="976.5" y="428.7969"/><rect fill="#F1F1F1" height="10" style="stroke:#181818;stroke-width:0.5;" width="15" x="1071.2373" y="433.7969"/><rect fill="#F1F1F1" height="2" style="stroke:#181818;stroke-width:0.5;" width="4" x="1069.2373" y="435.7969"/><rect fill="#F1F1F1" height="2" style="stroke:#181818;stroke-width:0.5;" width="4" x="1069.2373" y="439.7969"/><text fill="#000000" font-family="sans-serif" font-size="14" lengthAdjust="spacing" textLength="74.7373" x="991.5" y="461.792">PIR Sensor</text></g><!--entity IR Camera Module\n+ IR LED Array--><g class="entity" data-entity="IR Camera Module.n. IR LED Array" data-source-line="14" data-uid="ent0014" id="entity_IR Camera Module.n. IR LED Array"><rect fill="#F1F1F1" height="62.5938" rx="2.5" ry="2.5" style="stroke:#181818;stroke-width:0.5;" width="168.6045" x="772.5" y="420.2969"/><rect fill="#F1F1F1" height="10" style="stroke:#181818;stroke-width:0.5;" width="15" x="921.1045" y="425.2969"/><rect fill="#F1F1F1" height="2" style="stroke:#181818;stroke-width:0.5;" width="4" x="919.1045" y="427.2969"/><rect fill="#F1F1F1" height="2" style="stroke:#181818;stroke-width:0.5;" width="4" x="919.1045" y="431.2969"/><text fill="#000000" font-family="sans-serif" font-size="14" lengthAdjust="spacing" textLength="128.6045" x="787.5" y="453.292">IR Camera Module</text><text fill="#000000" font-family="sans-serif" font-size="14" lengthAdjust="spacing" textLength="104.3164" x="787.5" y="469.5889">+ IR LED Array</text></g><!--entity LTE Modem (SIM-Based)--><g class="entity" data-entity="LTE Modem .SIM-Based." data-source-line="15" data-uid="ent0016" id="entity_LTE Modem .SIM-Based."><rect fill="#F1F1F1" height="46.2969" rx="2.5" ry="2.5" style="stroke:#181818;stroke-width:0.5;" width="209.9277" x="527" y="428.7969"/><rect fill="#F1F1F1" height="10" style="stroke:#181818;stroke-width:0.5;" width="15" x="716.9277" y="433.7969"/><rect fill="#F1F1F1" height="2" style="stroke:#181818;stroke-width:0.5;" width="4" x="714.9277" y="435.7969"/><rect fill="#F1F1F1" height="2" style="stroke:#181818;stroke-width:0.5;" width="4" x="714.9277" y="439.7969"/><text fill="#000000" font-family="sans-serif" font-size="14" lengthAdjust="spacing" textLength="169.9277" x="542" y="461.792">LTE Modem (SIM-Based)</text></g><!--entity Wi-Fi Interface--><g class="entity" data-entity="Wi-Fi Interface" data-source-line="16" data-uid="ent0018" id="entity_Wi-Fi Interface"><rect fill="#F1F1F1" height="46.2969" rx="2.5" ry="2.5" style="stroke:#181818;stroke-width:0.5;" width="141.8555" x="350" y="428.7969"/><rect fill="#F1F1F1" height="10" style="stroke:#181818;stroke-width:0.5;" width="15" x="471.8555" y="433.7969"/><rect fill="#F1F1F1" height="2" style="stroke:#181818;stroke-width:0.5;" width="4" x="469.8555" y="435.7969"/><rect fill="#F1F1F1" height="2" style="stroke:#181818;stroke-width:0.5;" width="4" x="469.8555" y="439.7969"/><text fill="#000000" font-family="sans-serif" font-size="14" lengthAdjust="spacing" textLength="101.8555" x="365" y="461.792">Wi-Fi Interface</text></g><!--entity Cellular Network--><g class="entity" data-entity="Cellular Network" data-source-line="20" data-uid="ent0021" id="entity_Cellular Network"><rect fill="#F1F1F1" height="46.2969" rx="2.5" ry="2.5" style="stroke:#181818;stroke-width:0.5;" width="156.1699" x="446" y="690.2969"/><rect fill="#F1F1F1" height="10" style="stroke:#181818;stroke-width:0.5;" width="15" x="582.1699" y="695.2969"/><rect fill="#F1F1F1" height="2" style="stroke:#181818;stroke-width:0.5;" width="4" x="580.1699" y="697.2969"/><rect fill="#F1F1F1" height="2" style="stroke:#181818;stroke-width:0.5;" width="4" x="580.1699" y="701.2969"/><text fill="#000000" font-family="sans-serif" font-size="14" lengthAdjust="spacing" textLength="116.1699" x="461" y="723.292">Cellular Network</text></g><!--entity Wi-Fi Network--><g class="entity" data-entity="Wi-Fi Network" data-source-line="21" data-uid="ent0022" id="entity_Wi-Fi Network"><rect fill="#F1F1F1" height="46.2969" rx="2.5" ry="2.5" style="stroke:#181818;stroke-width:0.5;" width="137.6309" x="637" y="690.2969"/><rect fill="#F1F1F1" height="10" style="stroke:#181818;stroke-width:0.5;" width="15" x="754.6309" y="695.2969"/><rect fill="#F1F1F1" height="2" style="stroke:#181818;stroke-width:0.5;" width="4" x="752.6309" y="697.2969"/><rect fill="#F1F1F1" height="2" style="stroke:#181818;stroke-width:0.5;" width="4" x="752.6309" y="701.2969"/><text fill="#000000" font-family="sans-serif" font-size="14" lengthAdjust="spacing" textLength="97.6309" x="652" y="723.292">Wi-Fi Network</text></g><!--entity Remote Alert Server--><g class="entity" data-entity="Remote Alert Server" data-source-line="22" data-uid="ent0023" id="entity_Remote Alert Server"><rect fill="#F1F1F1" height="46.2969" rx="2.5" ry="2.5" style="stroke:#181818;stroke-width:0.5;" width="182.7822" x="518.5" y="797.2969"/><rect fill="#F1F1F1" height="10" style="stroke:#181818;stroke-width:0.5;" width="15" x="681.2822" y="802.2969"/><rect fill="#F1F1F1" height="2" style="stroke:#181818;stroke-width:0.5;" width="4" x="679.2822" y="804.2969"/><rect fill="#F1F1F1" height="2" style="stroke:#181818;stroke-width:0.5;" width="4" x="679.2822" y="808.2969"/><text fill="#000000" font-family="sans-serif" font-size="14" lengthAdjust="spacing" textLength="142.7822" x="533.5" y="830.292">Remote Alert Server</text></g><!--entity Monitoring Dashboard--><g class="entity" data-entity="Monitoring Dashboard" data-source-line="23" data-uid="ent0024" id="entity_Monitoring Dashboard"><rect fill="#F1F1F1" height="46.2969" rx="2.5" ry="2.5" style="stroke:#181818;stroke-width:0.5;" width="195.5176" x="512" y="904.2969"/><rect fill="#F1F1F1" height="10" style="stroke:#181818;stroke-width:0.5;" width="15" x="687.5176" y="909.2969"/><rect fill="#F1F1F1" height="2" style="stroke:#181818;stroke-width:0.5;" width="4" x="685.5176" y="911.2969"/><rect fill="#F1F1F1" height="2" style="stroke:#181818;stroke-width:0.5;" width="4" x="685.5176" y="915.2969"/><text fill="#000000" font-family="sans-serif" font-size="14" lengthAdjust="spacing" textLength="155.5176" x="527" y="937.292">Monitoring Dashboard</text></g><!--link Solar Panel (40W) to MPPT Charge Controller--><g class="link" data-entity-1="Solar Panel .40W." data-entity-2="MPPT Charge Controller" data-source-line="4" data-uid="lnk5" id="link_Solar Panel .40W._MPPT Charge Controller"><path d="M158,124.3069 C158,142.1069 158,161.0669 158,178.9569" fill="none" id="Solar Panel (40W)-to-MPPT Charge Controller" style="stroke:#181818;stroke-width:1;"/><polygon fill="#181818" points="158,184.9569,162,175.9569,158,179.9569,154,175.9569,158,184.9569" style="stroke:#181818;stroke-width:1;"/></g><!--link MPPT Charge Controller to 12V Battery (20Ah)--><g class="link" data-entity-1="MPPT Charge Controller" data-entity-2="12V Battery .20Ah." data-source-line="5" data-uid="lnk7" id="link_MPPT Charge Controller_12V Battery .20Ah."><path d="M158,231.3069 C158,249.1069 158,268.0669 158,285.9569" fill="none" id="MPPT Charge Controller-to-12V Battery (20Ah)" style="stroke:#181818;stroke-width:1;"/><polygon fill="#181818" points="158,291.9569,162,282.9569,158,286.9569,154,282.9569,158,291.9569" style="stroke:#181818;stroke-width:1;"/></g><!--link 12V Battery (20Ah) to DC-DC Buck Converter (12V?5V)--><g class="link" data-entity-1="12V Battery .20Ah." data-entity-2="DC-DC Buck Converter .12V.5V." data-source-line="6" data-uid="lnk9" id="link_12V Battery .20Ah._DC-DC Buck Converter .12V.5V."><path d="M158,338.5069 C158,363.4269 158,397.6169 158,422.5569" fill="none" id="12V Battery (20Ah)-to-DC-DC Buck Converter (12V&#8594;5V)" style="stroke:#181818;stroke-width:1;"/><polygon fill="#181818" points="158,428.5569,162,419.5569,158,423.5569,154,419.5569,158,428.5569" style="stroke:#181818;stroke-width:1;"/></g><!--link PIR Sensor to Raspberry Pi 5--><g class="link" data-entity-1="PIR Sensor" data-entity-2="Raspberry Pi 5" data-source-line="13" data-uid="lnk13" id="link_PIR Sensor_Raspberry Pi 5"><path d="M1002.17,474.9169 C989.21,483.2269 973.8,492.2369 959,498.7969 C874.89,536.0569 776.8653,557.9553 709.0553,570.1453" fill="none" id="PIR Sensor-to-Raspberry Pi 5" style="stroke:#181818;stroke-width:1;"/><polygon fill="#181818" points="703.15,571.2069,712.7157,573.5514,708.0711,570.3222,711.3003,565.6776,703.15,571.2069" style="stroke:#181818;stroke-width:1;"/><text fill="#000000" font-family="sans-serif" font-size="13" lengthAdjust="spacing" textLength="93.5581" x="917" y="526.3638">GPIO Interrupt</text></g><!--link IR Camera Module\n+ IR LED Array to Raspberry Pi 5--><g class="link" data-entity-1="IR Camera Module.n. IR LED Array" data-entity-2="Raspberry Pi 5" data-source-line="14" data-uid="lnk15" id="link_IR Camera Module.n. IR LED Array_Raspberry Pi 5"><path d="M808.99,483.3769 C785.68,497.9669 757.11,515.4269 731,530.2969 C713.12,540.4769 698.3961,548.3841 681.0461,557.3841" fill="none" id="IR Camera Module\n+ IR LED Array-to-Raspberry Pi 5" style="stroke:#181818;stroke-width:1;"/><polygon fill="#181818" points="675.72,560.1469,685.551,559.5534,680.1584,557.8445,681.8672,552.452,675.72,560.1469" style="stroke:#181818;stroke-width:1;"/><text fill="#000000" font-family="sans-serif" font-size="13" lengthAdjust="spacing" textLength="83.4971" x="759" y="526.3638">CSI Interface</text></g><!--link LTE Modem (SIM-Based) to Raspberry Pi 5--><g class="link" data-entity-1="LTE Modem .SIM-Based." data-entity-2="Raspberry Pi 5" data-source-line="15" data-uid="lnk17" id="link_LTE Modem .SIM-Based._Raspberry Pi 5"><path d="M632,475.0569 C632,498.7769 632,530.1169 632,553.8969" fill="none" id="LTE Modem (SIM-Based)-to-Raspberry Pi 5" style="stroke:#181818;stroke-width:1;"/><polygon fill="#181818" points="632,559.8969,636,550.8969,632,554.8969,628,550.8969,632,559.8969" style="stroke:#181818;stroke-width:1;"/><text fill="#000000" font-family="sans-serif" font-size="13" lengthAdjust="spacing" textLength="89.0195" x="633" y="526.3638">USB Interface</text></g><!--link Wi-Fi Interface to Raspberry Pi 5--><g class="link" data-entity-1="Wi-Fi Interface" data-entity-2="Raspberry Pi 5" data-source-line="16" data-uid="lnk19" id="link_Wi-Fi Interface_Raspberry Pi 5"><path d="M441.29,475.1269 C457.53,491.9769 481.55,514.7869 506,530.2969 C524.58,542.0869 540.7203,549.9457 560.8403,558.0057" fill="none" id="Wi-Fi Interface-to-Raspberry Pi 5" style="stroke:#181818;stroke-width:1;"/><polygon fill="#181818" points="566.41,560.2369,559.5429,553.1769,561.7686,558.3775,556.568,560.6032,566.41,560.2369" style="stroke:#181818;stroke-width:1;"/><text fill="#000000" font-family="sans-serif" font-size="13" lengthAdjust="spacing" textLength="116.6128" x="507" y="526.3638">Network Interface</text></g><!--link DC-DC Buck Converter (12V?5V) to Raspberry Pi 5--><g class="link" data-entity-1="DC-DC Buck Converter .12V.5V." data-entity-2="Raspberry Pi 5" data-source-line="26" data-uid="lnk25" id="link_DC-DC Buck Converter .12V.5V._Raspberry Pi 5"><path d="M201.06,474.8469 C236.67,492.2369 289,515.8869 337,530.2969 C411.84,552.7569 494.4986,566.0046 554.9286,573.7446" fill="none" id="DC-DC Buck Converter (12V&#8594;5V)-to-Raspberry Pi 5" style="stroke:#181818;stroke-width:1;"/><polygon fill="#181818" points="560.88,574.5069,552.4611,569.3959,555.9205,573.8717,551.4447,577.3311,560.88,574.5069" style="stroke:#181818;stroke-width:1;"/><text fill="#000000" font-family="sans-serif" font-size="13" lengthAdjust="spacing" textLength="136.1763" x="338" y="526.3638">5V Regulated Supply</text></g><!--link Raspberry Pi 5 to Cellular Network--><g class="link" data-entity-1="Raspberry Pi 5" data-entity-2="Cellular Network" data-source-line="28" data-uid="lnk26" id="link_Raspberry Pi 5_Cellular Network"><path d="M613.43,606.2969 C593.65,629.7469 566.3793,662.0712 546.5593,685.5612" fill="none" id="Raspberry Pi 5-to-Cellular Network" style="stroke:#181818;stroke-width:1;"/><polygon fill="#181818" points="542.69,690.1469,551.551,685.8478,545.9144,686.3254,545.4367,680.6888,542.69,690.1469" style="stroke:#181818;stroke-width:1;"/></g><!--link Raspberry Pi 5 to Wi-Fi Network--><g class="link" data-entity-1="Raspberry Pi 5" data-entity-2="Wi-Fi Network" data-source-line="29" data-uid="lnk27" id="link_Raspberry Pi 5_Wi-Fi Network"><path d="M644.72,606.2969 C658.28,629.7469 676.6054,661.4634 690.1954,684.9534" fill="none" id="Raspberry Pi 5-to-Wi-Fi Network" style="stroke:#181818;stroke-width:1;"/><polygon fill="#181818" points="693.2,690.1469,692.1553,680.3536,690.6961,685.819,685.2307,684.3598,693.2,690.1469" style="stroke:#181818;stroke-width:1;"/></g><!--link Cellular Network to Remote Alert Server--><g class="link" data-entity-1="Cellular Network" data-entity-2="Remote Alert Server" data-source-line="31" data-uid="lnk28" id="link_Cellular Network_Remote Alert Server"><path d="M542.03,736.3069 C556.61,754.1069 573.2486,774.4248 587.8986,792.3148" fill="none" id="Cellular Network-to-Remote Alert Server" style="stroke:#181818;stroke-width:1;"/><polygon fill="#181818" points="591.7,796.9569,589.0926,787.4594,588.5322,793.0884,582.9031,792.528,591.7,796.9569" style="stroke:#181818;stroke-width:1;"/></g><!--link Wi-Fi Network to Remote Alert Server--><g class="link" data-entity-1="Wi-Fi Network" data-entity-2="Remote Alert Server" data-source-line="32" data-uid="lnk29" id="link_Wi-Fi Network_Remote Alert Server"><path d="M685.88,736.3069 C669.6,754.1069 650.8277,774.6379 634.4777,792.5279" fill="none" id="Wi-Fi Network-to-Remote Alert Server" style="stroke:#181818;stroke-width:1;"/><polygon fill="#181818" points="630.43,796.9569,639.4542,793.0119,633.8031,793.2661,633.5489,787.6149,630.43,796.9569" style="stroke:#181818;stroke-width:1;"/></g><!--link Remote Alert Server to Monitoring Dashboard--><g class="link" data-entity-1="Remote Alert Server" data-entity-2="Monitoring Dashboard" data-source-line="34" data-uid="lnk30" id="link_Remote Alert Server_Monitoring Dashboard"><path d="M610,843.3069 C610,861.1069 610,880.0669 610,897.9569" fill="none" id="Remote Alert Server-to-Monitoring Dashboard" style="stroke:#181818;stroke-width:1;"/><polygon fill="#181818" points="610,903.9569,614,894.9569,610,898.9569,606,894.9569,610,903.9569" style="stroke:#181818;stroke-width:1;"/></g><!--SRC=[XPF1Rfj048RlFCKe9riLKXhLbnugOUnMI76AJEeSKX_MC34hBxjeTacAgbxx07t4F4d7G5ERGCjnzl_-sNzdSD8fX3YlhKo5We3IN3fCNKK8FYH62V83QwLrcC4osoC44IGLFQ9KIkWKuSPaw7cbI0-2JozYyuJ4YfsjcIakuBi7_DqtLX0BZGecxoxlfblm_GzmluhZMmXpGGo7HZioIY5jMsZai2NVNcrWBfn3gc5oTHdaquuQE6Y9HUWlGfXNwU7ezeZ44fYm_Fddhzc6yHydGPgmeIdAok5vdhRBMjXoXyGzOWcpBNJbE5f3WjgQFzViwzx3fpZw397cvbILhiMO2aM1961biahXL_q6k7QzNF1CIDIZPc4IjLuF8iNMw_fsUNJ10YP9jFBdmc8s7JNuaipx1dVI_oZ_5aVH6tHFXWud-Da3VkEgvgMAz0C9wwXgrkfb8q9KgZekHMUpFMr-NbjZONWA0G_VyUlozhriYD7I6P9w3mjXyvqHb3Lp_E-mnqBDDh36FL_ikF59LPQgPhU-he5V9nZMzI9vhy7kCaCnU_G_bDvWkVlDXjxfDm00]--></g></svg>