<svg xmlns="http://www.w3.org/2000/svg" xmlns:xlink="http://www.w3.org/1999/xlink" contentStyleType="text/css" data-diagram-type="STATE" height="714px" preserveAspectRatio="none" style="width:536px;height:714px;background:#FFFFFF;" version="1.1" viewBox="0 0 536 714" width="536px" zoomAndPan="magnify"><title>System Operational State Machine</title><defs/><g><g class="title" data-source-line="1"><text fill="#000000" font-family="sans-serif" font-size="14" font-weight="bold" lengthAdjust="spacing" textLength="274.3467" x="124.1636" y="22.9951">System Operational State Machine</text></g><ellipse cx="197" cy="53.2969" fill="#222222" rx="10" ry="10" style="stroke:#222222;stroke-width:1;"/><g id="System_Initialization"><rect fill="#F1F1F1" height="50" rx="12.5" ry="12.5" style="stroke:#181818;stroke-width:0.5;" width="164.5801" x="114.5" y="124.2969"/><line style="stroke:#181818;stroke-width:0.5;" x1="114.5" x2="279.0801" y1="150.5938" y2="150.5938"/><text fill="#000000" font-family="sans-serif" font-size="14" lengthAdjust="spacing" textLength="144.5801" x="124.5" y="142.292">System_Initialization</text></g><g id="Idle_State"><rect fill="#F1F1F1" height="78.2031" rx="12.5" ry="12.5" style="stroke:#181818;stroke-width:0.5;" width="123.0371" x="135.5" y="235.2969"/><line style="stroke:#181818;stroke-width:0.5;" x1="135.5" x2="258.5371" y1="261.5938" y2="261.5938"/><text fill="#000000" font-family="sans-serif" font-size="14" lengthAdjust="spacing" textLength="69.5762" x="162.2305" y="253.292">Idle_State</text><text fill="#000000" font-family="sans-serif" font-size="12" lengthAdjust="spacing" textLength="83.168" x="140.5" y="277.7324">CPU Throttled</text><text fill="#000000" font-family="sans-serif" font-size="12" lengthAdjust="spacing" textLength="103.0371" x="140.5" y="291.7012">Camera Disabled</text><text fill="#000000" font-family="sans-serif" font-size="12" lengthAdjust="spacing" textLength="77.4492" x="140.5" y="305.6699">PIR Listening</text></g><g id="Pre_Activation"><rect fill="#F1F1F1" height="64.2344" rx="12.5" ry="12.5" style="stroke:#181818;stroke-width:0.5;" width="120.1465" x="7" y="390.2969"/><line style="stroke:#181818;stroke-width:0.5;" x1="7" x2="127.1465" y1="416.5938" y2="416.5938"/><text fill="#000000" font-family="sans-serif" font-size="14" lengthAdjust="spacing" textLength="100.1465" x="17" y="408.292">Pre_Activation</text><text fill="#000000" font-family="sans-serif" font-size="12" lengthAdjust="spacing" textLength="60.498" x="12" y="432.7324">Scale CPU</text><text fill="#000000" font-family="sans-serif" font-size="12" lengthAdjust="spacing" textLength="91.7813" x="12" y="446.7012">Enable Camera</text></g><g id="Analysis_State"><rect fill="#F1F1F1" height="50.2656" rx="12.5" ry="12.5" style="stroke:#181818;stroke-width:0.5;" width="147.6992" x="123" y="531.2969"/><line style="stroke:#181818;stroke-width:0.5;" x1="123" x2="270.6992" y1="557.5938" y2="557.5938"/><text fill="#000000" font-family="sans-serif" font-size="14" lengthAdjust="spacing" textLength="101.7393" x="145.98" y="549.292">Analysis_State</text><text fill="#000000" font-family="sans-serif" font-size="12" lengthAdjust="spacing" textLength="127.6992" x="128" y="573.7324">Detection + Tracking</text></g><g id="Alert_State"><rect fill="#F1F1F1" height="50.2656" rx="12.5" ry="12.5" style="stroke:#181818;stroke-width:0.5;" width="105.582" x="233" y="658.2969"/><line style="stroke:#181818;stroke-width:0.5;" x1="233" x2="338.582" y1="684.5938" y2="684.5938"/><text fill="#000000" font-family="sans-serif" font-size="14" lengthAdjust="spacing" textLength="77.3828" x="247.0996" y="676.292">Alert_State</text><text fill="#000000" font-family="sans-serif" font-size="12" lengthAdjust="spacing" textLength="85.582" x="238" y="700.7324">Transmit Alert</text></g><!--link *start* to System_Initialization--><g class="link" data-entity-1=".start." data-entity-2="System_Initialization" data-source-line="3" data-uid="lnk4" id="link_.start._System_Initialization"><path d="M197,63.3069 C197,77.1869 197,98.2669 197,118.1369" fill="none" id="*start*-to-System_Initialization" style="stroke:#181818;stroke-width:1;"/><polygon fill="#181818" points="197,124.1369,201,115.1369,197,119.1369,193,115.1369,197,124.1369" style="stroke:#181818;stroke-width:1;"/></g><!--link System_Initialization to Idle_State--><g class="link" data-entity-1="System_Initialization" data-entity-2="Idle_State" data-source-line="5" data-uid="lnk6" id="link_System_Initialization_Idle_State"><path d="M197,174.3069 C197,191.5069 197,209.0269 197,228.8269" fill="none" id="System_Initialization-to-Idle_State" style="stroke:#181818;stroke-width:1;"/><polygon fill="#181818" points="197,234.8269,201,225.8269,197,229.8269,193,225.8269,197,234.8269" style="stroke:#181818;stroke-width:1;"/></g><!--link Idle_State to Pre_Activation--><g class="link" data-entity-1="Idle_State" data-entity-2="Pre_Activation" data-source-line="11" data-uid="lnk8" id="link_Idle_State_Pre_Activation"><path d="M135.33,302.2669 C117.46,312.7569 99.44,326.3869 87,343.2969 C77.06,356.8069 73.0295,368.8774 70.4995,384.1674" fill="none" id="Idle_State-to-Pre_Activation" style="stroke:#181818;stroke-width:1;"/><polygon fill="#181818" points="69.52,390.0869,74.9356,381.8606,70.3362,385.1539,67.0429,380.5546,69.52,390.0869" style="stroke:#181818;stroke-width:1;"/><text fill="#000000" font-family="sans-serif" font-size="13" lengthAdjust="spacing" textLength="82.2847" x="88" y="356.3638">PIR Interrupt</text></g><!--link Pre_Activation to Analysis_State--><g class="link" data-entity-1="Pre_Activation" data-entity-2="Analysis_State" data-source-line="16" data-uid="lnk10" id="link_Pre_Activation_Analysis_State"><path d="M97.81,454.5769 C120.93,478.0569 147.9203,505.4616 169.1103,526.9816" fill="none" id="Pre_Activation-to-Analysis_State" style="stroke:#181818;stroke-width:1;"/><polygon fill="#181818" points="173.32,531.2569,169.8556,522.0374,169.8119,527.6941,164.1552,527.6504,173.32,531.2569" style="stroke:#181818;stroke-width:1;"/></g><!--link Analysis_State to Alert_State--><g class="link" data-entity-1="Analysis_State" data-entity-2="Alert_State" data-source-line="20" data-uid="lnk12" id="link_Analysis_State_Alert_State"><path d="M206.96,581.3569 C213.4,595.6169 222.52,613.7069 233,628.2969 C240.58,638.8569 245.9613,645.1105 254.9413,653.9805" fill="none" id="Analysis_State-to-Alert_State" style="stroke:#181818;stroke-width:1;"/><polygon fill="#181818" points="259.21,658.1969,255.6179,649.0264,255.6527,654.6832,249.996,654.7181,259.21,658.1969" style="stroke:#181818;stroke-width:1;"/><text fill="#000000" font-family="sans-serif" font-size="13" lengthAdjust="spacing" textLength="114.4355" x="234" y="624.3638">Threat Confirmed</text></g><!--link Analysis_State to Idle_State--><g class="link" data-entity-1="Analysis_State" data-entity-2="Idle_State" data-source-line="21" data-uid="lnk13" id="link_Analysis_State_Idle_State"><path d="M197,530.9369 C197,482.0869 197,377.8169 197,319.3469" fill="none" id="Analysis_State-to-Idle_State" style="stroke:#181818;stroke-width:1;"/><polygon fill="#181818" points="197,313.3469,193,322.3469,197,318.3469,201,322.3469,197,313.3469" style="stroke:#181818;stroke-width:1;"/><text fill="#000000" font-family="sans-serif" font-size="13" lengthAdjust="spacing" textLength="123.519" x="198" y="426.8638">No Motion Timeout</text></g><!--link Alert_State to Idle_State--><g class="link" data-entity-1="Alert_State" data-entity-2="Idle_State" data-source-line="24" data-uid="lnk14" id="link_Alert_State_Idle_State"><path d="M327.71,658.0969 C337.86,650.0169 347.39,640.0169 353,628.2969 C398.86,532.4269 379.15,484.5169 330,390.2969 C313.77,359.1769 290.1005,336.3794 263.6405,316.7694" fill="none" id="Alert_State-to-Idle_State" style="stroke:#181818;stroke-width:1;"/><polygon fill="#181818" points="258.82,313.1969,263.669,321.7693,262.8371,316.174,268.4324,315.342,258.82,313.1969" style="stroke:#181818;stroke-width:1;"/><text fill="#000000" font-family="sans-serif" font-size="13" lengthAdjust="spacing" textLength="152.6738" x="376" y="497.3638">Transmission Complete</text></g><!--SRC=[RL3DJeD04BxlKynPqnVmOD9G3oHMYU3963BIqKxS7x8xDQbFxx2W1kYDvVkTJrWiGNrEGWuUUuee73nQg0M5O8_TaJqPytBr2flDxSHiIy_2QFaxqusv-3iBoeEbDfiPy_yDDr1Kpz0SOn0jS5X0wBG8x3ZXsmgioYUuPutpx3zcdaDS5QdTTi9VOuEHNdgX64-z6BF2wmvr02spXkxy43-rMKc7jAqkTKwSVW-SlzLYHq9Tfbz34x7xp9qNjEnaASgVJ7SX52Y2V-VeT84BYjae3m7s8USqx2YSzDA5OqIV7CiOD0DNPXCtfS6l2AwtUiKF]--></g></svg>